# xmcd CD database file
#
# Track frame offsets:
#	150
#	21017
#	42218
#	59456
#	79314
#	101105
#	121603
#	139795
#	159992
#
# Disc length: 2385 seconds
#
# Revision: 0
# Processed by: cddbd v1.5.2PL0 Copyright (c) Steve Scherf et al.
# Submitted via: CDex 1.70beta2
#
DISCID=6d094f09
DTITLE=romi - あのうた
DYEAR=1900
DGENRE=Jazz
TTITLE0=銀河鉄道999
TTITLE1=悲しみよこんにちは
TTITLE2=やつらの足音のバラード
TTITLE3=君をのせて
TTITLE4=初めてのチュウ
TTITLE5=ロマンティックあげるよ
TTITLE6=裸足のフローネ
TTITLE7=恋の呪文はスキトキメキトキス
TTITLE8=真っ赤なスカーフ
EXTD=
EXTT0=
EXTT1=
EXTT2=
EXTT3=
EXTT4=
EXTT5=
EXTT6=
EXTT7=
EXTT8=
PLAYORDER=
